# Blender 4.4.0
# www.blender.org
mtllib tetrahedron.mtl
o Cube
v 1.000000 -1.000000 -1.000000
v -1.000000 -1.000000 1.000000
v 1.000000 1.000000 1.000000
v -1.000000 1.000000 -1.000000
vn -0.5774 0.5774 0.5774
vn 0.5774 0.5774 -0.5774
vn -0.5774 -0.5774 -0.5774
vn 0.5774 -0.5774 0.5774
vt 0.375000 0.750000
vt 0.625000 1.000000
vt 0.375000 1.000000
vt 0.375000 0.500000
vt 0.375000 0.000000
vt 0.125000 0.750000
s 1
usemtl Material.002
f 2/1/1 3/2/1 4/3/1
f 1/4/2 4/5/2 3/2/2
f 4/6/3 1/4/3 2/1/3
f 2/1/4 1/4/4 3/2/4
